<mxfile host="app.diagrams.net" modified="2020-05-09T13:32:25.227Z" agent="Mozilla/5.0 (Windows NT 10.0; WOW64) AppleWebKit/537.36 (KHTML, like Gecko) Chrome/81.0.4044.138 Safari/537.36" etag="zsYRzFu6vQgyuEZ9rSeO" version="12.8.8" type="github">
  <diagram id="A1M14UMs0x3FmAMATQVp" name="第 1 页">
    <mxGraphModel dx="1038" dy="617" grid="1" gridSize="10" guides="1" tooltips="1" connect="1" arrows="1" fold="1" page="1" pageScale="1" pageWidth="827" pageHeight="1169" math="1" shadow="0">
      <root>
        <mxCell id="0" />
        <mxCell id="1" parent="0" />
        <mxCell id="SwjqRacwEZwQFt1Zl2ub-13" style="rounded=0;orthogonalLoop=1;jettySize=auto;html=1;exitX=1;exitY=1;exitDx=0;exitDy=0;entryX=0;entryY=0;entryDx=0;entryDy=0;" parent="1" source="SwjqRacwEZwQFt1Zl2ub-1" target="SwjqRacwEZwQFt1Zl2ub-3" edge="1">
          <mxGeometry relative="1" as="geometry" />
        </mxCell>
        <mxCell id="SwjqRacwEZwQFt1Zl2ub-26" style="edgeStyle=none;rounded=0;orthogonalLoop=1;jettySize=auto;html=1;exitX=1;exitY=0.5;exitDx=0;exitDy=0;entryX=0;entryY=0.5;entryDx=0;entryDy=0;dashed=1;fillColor=#dae8fc;strokeColor=#6c8ebf;" parent="1" source="SwjqRacwEZwQFt1Zl2ub-1" target="SwjqRacwEZwQFt1Zl2ub-19" edge="1">
          <mxGeometry relative="1" as="geometry" />
        </mxCell>
        <mxCell id="1mNwVP0OkeCZfZ_Qu2B7-6" style="edgeStyle=orthogonalEdgeStyle;rounded=0;orthogonalLoop=1;jettySize=auto;html=1;exitX=0.5;exitY=0;exitDx=0;exitDy=0;entryX=0.5;entryY=0;entryDx=0;entryDy=0;strokeColor=#6c8ebf;curved=1;fillColor=#dae8fc;dashed=1;" edge="1" parent="1" source="SwjqRacwEZwQFt1Zl2ub-1" target="SwjqRacwEZwQFt1Zl2ub-19">
          <mxGeometry relative="1" as="geometry">
            <Array as="points">
              <mxPoint x="105" y="90" />
              <mxPoint x="205" y="90" />
            </Array>
          </mxGeometry>
        </mxCell>
        <mxCell id="1mNwVP0OkeCZfZ_Qu2B7-7" style="edgeStyle=orthogonalEdgeStyle;curved=1;rounded=0;orthogonalLoop=1;jettySize=auto;html=1;exitX=0.5;exitY=0;exitDx=0;exitDy=0;entryX=0.5;entryY=0;entryDx=0;entryDy=0;dashed=1;strokeColor=#6c8ebf;fillColor=#dae8fc;" edge="1" parent="1" source="SwjqRacwEZwQFt1Zl2ub-1" target="SwjqRacwEZwQFt1Zl2ub-20">
          <mxGeometry relative="1" as="geometry">
            <Array as="points">
              <mxPoint x="105" y="80" />
              <mxPoint x="305" y="80" />
            </Array>
          </mxGeometry>
        </mxCell>
        <mxCell id="1mNwVP0OkeCZfZ_Qu2B7-8" style="edgeStyle=orthogonalEdgeStyle;curved=1;rounded=0;orthogonalLoop=1;jettySize=auto;html=1;exitX=0.5;exitY=0;exitDx=0;exitDy=0;entryX=0.5;entryY=0;entryDx=0;entryDy=0;dashed=1;strokeColor=#6c8ebf;fillColor=#dae8fc;" edge="1" parent="1" source="SwjqRacwEZwQFt1Zl2ub-1" target="SwjqRacwEZwQFt1Zl2ub-8">
          <mxGeometry relative="1" as="geometry">
            <Array as="points">
              <mxPoint x="105" y="70" />
              <mxPoint x="405" y="70" />
            </Array>
          </mxGeometry>
        </mxCell>
        <mxCell id="SwjqRacwEZwQFt1Zl2ub-1" value="X&lt;sup&gt;0,0&lt;/sup&gt;" style="ellipse;whiteSpace=wrap;html=1;" parent="1" vertex="1">
          <mxGeometry x="80" y="100" width="50" height="50" as="geometry" />
        </mxCell>
        <mxCell id="SwjqRacwEZwQFt1Zl2ub-14" style="edgeStyle=none;rounded=0;orthogonalLoop=1;jettySize=auto;html=1;exitX=1;exitY=1;exitDx=0;exitDy=0;entryX=0;entryY=0;entryDx=0;entryDy=0;" parent="1" source="SwjqRacwEZwQFt1Zl2ub-3" target="SwjqRacwEZwQFt1Zl2ub-4" edge="1">
          <mxGeometry relative="1" as="geometry" />
        </mxCell>
        <mxCell id="SwjqRacwEZwQFt1Zl2ub-23" style="edgeStyle=none;rounded=0;orthogonalLoop=1;jettySize=auto;html=1;exitX=1;exitY=0;exitDx=0;exitDy=0;entryX=0;entryY=1;entryDx=0;entryDy=0;fillColor=#dae8fc;strokeColor=#1A1A1A;" parent="1" source="SwjqRacwEZwQFt1Zl2ub-3" target="SwjqRacwEZwQFt1Zl2ub-19" edge="1">
          <mxGeometry relative="1" as="geometry" />
        </mxCell>
        <mxCell id="1mNwVP0OkeCZfZ_Qu2B7-1" style="edgeStyle=orthogonalEdgeStyle;rounded=0;orthogonalLoop=1;jettySize=auto;html=1;exitX=1;exitY=0.5;exitDx=0;exitDy=0;entryX=0;entryY=0.5;entryDx=0;entryDy=0;dashed=1;fillColor=#dae8fc;strokeColor=#6c8ebf;" edge="1" parent="1" source="SwjqRacwEZwQFt1Zl2ub-3" target="SwjqRacwEZwQFt1Zl2ub-11">
          <mxGeometry relative="1" as="geometry" />
        </mxCell>
        <mxCell id="SwjqRacwEZwQFt1Zl2ub-3" value="X&lt;sup&gt;1,0&lt;/sup&gt;" style="ellipse;whiteSpace=wrap;html=1;" parent="1" vertex="1">
          <mxGeometry x="130" y="150" width="50" height="50" as="geometry" />
        </mxCell>
        <mxCell id="SwjqRacwEZwQFt1Zl2ub-15" style="edgeStyle=none;rounded=0;orthogonalLoop=1;jettySize=auto;html=1;exitX=1;exitY=1;exitDx=0;exitDy=0;entryX=0;entryY=0;entryDx=0;entryDy=0;" parent="1" source="SwjqRacwEZwQFt1Zl2ub-4" target="SwjqRacwEZwQFt1Zl2ub-5" edge="1">
          <mxGeometry relative="1" as="geometry" />
        </mxCell>
        <mxCell id="SwjqRacwEZwQFt1Zl2ub-24" style="edgeStyle=none;rounded=0;orthogonalLoop=1;jettySize=auto;html=1;exitX=1;exitY=0;exitDx=0;exitDy=0;entryX=0;entryY=1;entryDx=0;entryDy=0;fillColor=#dae8fc;strokeColor=#1A1A1A;" parent="1" source="SwjqRacwEZwQFt1Zl2ub-4" target="SwjqRacwEZwQFt1Zl2ub-11" edge="1">
          <mxGeometry relative="1" as="geometry" />
        </mxCell>
        <mxCell id="SwjqRacwEZwQFt1Zl2ub-30" style="edgeStyle=none;rounded=0;orthogonalLoop=1;jettySize=auto;html=1;exitX=1;exitY=0.5;exitDx=0;exitDy=0;entryX=1;entryY=0.5;entryDx=0;entryDy=0;dashed=1;fillColor=#dae8fc;strokeColor=#6c8ebf;" parent="1" source="SwjqRacwEZwQFt1Zl2ub-4" target="SwjqRacwEZwQFt1Zl2ub-6" edge="1">
          <mxGeometry relative="1" as="geometry" />
        </mxCell>
        <mxCell id="SwjqRacwEZwQFt1Zl2ub-4" value="X&lt;sup&gt;2,0&lt;/sup&gt;" style="ellipse;whiteSpace=wrap;html=1;" parent="1" vertex="1">
          <mxGeometry x="180" y="200" width="50" height="50" as="geometry" />
        </mxCell>
        <mxCell id="SwjqRacwEZwQFt1Zl2ub-16" style="edgeStyle=none;rounded=0;orthogonalLoop=1;jettySize=auto;html=1;exitX=1;exitY=0;exitDx=0;exitDy=0;entryX=1;entryY=0;entryDx=0;entryDy=0;" parent="1" source="SwjqRacwEZwQFt1Zl2ub-5" target="SwjqRacwEZwQFt1Zl2ub-6" edge="1">
          <mxGeometry relative="1" as="geometry" />
        </mxCell>
        <mxCell id="SwjqRacwEZwQFt1Zl2ub-5" value="X&lt;sup&gt;3,0&lt;/sup&gt;" style="ellipse;whiteSpace=wrap;html=1;" parent="1" vertex="1">
          <mxGeometry x="230" y="250" width="50" height="50" as="geometry" />
        </mxCell>
        <mxCell id="SwjqRacwEZwQFt1Zl2ub-17" style="edgeStyle=none;rounded=0;orthogonalLoop=1;jettySize=auto;html=1;exitX=0;exitY=1;exitDx=0;exitDy=0;entryX=0;entryY=1;entryDx=0;entryDy=0;" parent="1" source="SwjqRacwEZwQFt1Zl2ub-6" target="SwjqRacwEZwQFt1Zl2ub-7" edge="1">
          <mxGeometry relative="1" as="geometry" />
        </mxCell>
        <mxCell id="SwjqRacwEZwQFt1Zl2ub-6" value="X&lt;sup&gt;2,1&lt;/sup&gt;" style="ellipse;whiteSpace=wrap;html=1;direction=west;" parent="1" vertex="1">
          <mxGeometry x="280" y="200" width="50" height="50" as="geometry" />
        </mxCell>
        <mxCell id="SwjqRacwEZwQFt1Zl2ub-18" style="edgeStyle=none;rounded=0;orthogonalLoop=1;jettySize=auto;html=1;exitX=1;exitY=0;exitDx=0;exitDy=0;entryX=0;entryY=1;entryDx=0;entryDy=0;" parent="1" source="SwjqRacwEZwQFt1Zl2ub-7" target="SwjqRacwEZwQFt1Zl2ub-8" edge="1">
          <mxGeometry relative="1" as="geometry" />
        </mxCell>
        <mxCell id="SwjqRacwEZwQFt1Zl2ub-7" value="X&lt;sup&gt;1,2&lt;/sup&gt;" style="ellipse;whiteSpace=wrap;html=1;" parent="1" vertex="1">
          <mxGeometry x="330" y="150" width="50" height="50" as="geometry" />
        </mxCell>
        <mxCell id="SwjqRacwEZwQFt1Zl2ub-8" value="X&lt;sup&gt;0,3&lt;/sup&gt;" style="ellipse;whiteSpace=wrap;html=1;" parent="1" vertex="1">
          <mxGeometry x="380" y="100" width="50" height="50" as="geometry" />
        </mxCell>
        <mxCell id="SwjqRacwEZwQFt1Zl2ub-25" style="edgeStyle=none;rounded=0;orthogonalLoop=1;jettySize=auto;html=1;exitX=1;exitY=0;exitDx=0;exitDy=0;entryX=0;entryY=1;entryDx=0;entryDy=0;dashed=1;" parent="1" source="SwjqRacwEZwQFt1Zl2ub-11" target="SwjqRacwEZwQFt1Zl2ub-20" edge="1">
          <mxGeometry relative="1" as="geometry" />
        </mxCell>
        <mxCell id="SwjqRacwEZwQFt1Zl2ub-11" value="X&lt;sup&gt;1,1&lt;/sup&gt;" style="ellipse;whiteSpace=wrap;html=1;fillColor=#d5e8d4;strokeColor=#82b366;" parent="1" vertex="1">
          <mxGeometry x="230" y="150" width="50" height="50" as="geometry" />
        </mxCell>
        <mxCell id="SwjqRacwEZwQFt1Zl2ub-27" style="edgeStyle=none;rounded=0;orthogonalLoop=1;jettySize=auto;html=1;exitX=1;exitY=0.5;exitDx=0;exitDy=0;entryX=0;entryY=0.5;entryDx=0;entryDy=0;dashed=1;fillColor=#dae8fc;strokeColor=#6c8ebf;" parent="1" source="SwjqRacwEZwQFt1Zl2ub-19" target="SwjqRacwEZwQFt1Zl2ub-20" edge="1">
          <mxGeometry relative="1" as="geometry" />
        </mxCell>
        <mxCell id="SwjqRacwEZwQFt1Zl2ub-19" value="X&lt;sup&gt;0,1&lt;/sup&gt;" style="ellipse;whiteSpace=wrap;html=1;fillColor=#d5e8d4;strokeColor=#82b366;" parent="1" vertex="1">
          <mxGeometry x="180" y="100" width="50" height="50" as="geometry" />
        </mxCell>
        <mxCell id="SwjqRacwEZwQFt1Zl2ub-28" style="edgeStyle=none;rounded=0;orthogonalLoop=1;jettySize=auto;html=1;exitX=1;exitY=0.5;exitDx=0;exitDy=0;entryX=0;entryY=0.5;entryDx=0;entryDy=0;dashed=1;fillColor=#dae8fc;strokeColor=#6c8ebf;" parent="1" source="SwjqRacwEZwQFt1Zl2ub-20" target="SwjqRacwEZwQFt1Zl2ub-8" edge="1">
          <mxGeometry relative="1" as="geometry" />
        </mxCell>
        <mxCell id="SwjqRacwEZwQFt1Zl2ub-20" value="X&lt;sup&gt;0,2&lt;/sup&gt;" style="ellipse;whiteSpace=wrap;html=1;fillColor=#d5e8d4;strokeColor=#82b366;" parent="1" vertex="1">
          <mxGeometry x="280" y="100" width="50" height="50" as="geometry" />
        </mxCell>
        <mxCell id="1mNwVP0OkeCZfZ_Qu2B7-2" style="edgeStyle=none;rounded=0;orthogonalLoop=1;jettySize=auto;html=1;exitX=1;exitY=0.5;exitDx=0;exitDy=0;entryX=0;entryY=0.5;entryDx=0;entryDy=0;dashed=1;fillColor=#dae8fc;strokeColor=#6c8ebf;" edge="1" parent="1">
          <mxGeometry relative="1" as="geometry">
            <mxPoint x="280" y="174.5" as="sourcePoint" />
            <mxPoint x="330" y="174.5" as="targetPoint" />
          </mxGeometry>
        </mxCell>
        <mxCell id="1mNwVP0OkeCZfZ_Qu2B7-4" style="edgeStyle=none;rounded=0;orthogonalLoop=1;jettySize=auto;html=1;exitX=1;exitY=0.5;exitDx=0;exitDy=0;entryX=0;entryY=0.5;entryDx=0;entryDy=0;dashed=1;fillColor=#dae8fc;strokeColor=#6c8ebf;" edge="1" parent="1">
          <mxGeometry relative="1" as="geometry">
            <mxPoint x="230" y="124.5" as="sourcePoint" />
            <mxPoint x="280" y="124.5" as="targetPoint" />
          </mxGeometry>
        </mxCell>
        <mxCell id="1mNwVP0OkeCZfZ_Qu2B7-5" style="edgeStyle=none;rounded=0;orthogonalLoop=1;jettySize=auto;html=1;exitX=1;exitY=0;exitDx=0;exitDy=0;entryX=0;entryY=1;entryDx=0;entryDy=0;fillColor=#dae8fc;strokeColor=#1A1A1A;" edge="1" parent="1">
          <mxGeometry relative="1" as="geometry">
            <mxPoint x="272.6776695296637" y="157.32233047033628" as="sourcePoint" />
            <mxPoint x="287.3223304703363" y="142.67766952966372" as="targetPoint" />
          </mxGeometry>
        </mxCell>
        <mxCell id="1mNwVP0OkeCZfZ_Qu2B7-13" style="edgeStyle=orthogonalEdgeStyle;curved=1;rounded=0;orthogonalLoop=1;jettySize=auto;html=1;exitX=1;exitY=0.5;exitDx=0;exitDy=0;entryX=0;entryY=0.5;entryDx=0;entryDy=0;dashed=1;strokeColor=#6c8ebf;fillColor=#dae8fc;" edge="1" parent="1" source="SwjqRacwEZwQFt1Zl2ub-3" target="SwjqRacwEZwQFt1Zl2ub-7">
          <mxGeometry relative="1" as="geometry">
            <Array as="points">
              <mxPoint x="180" y="150" />
              <mxPoint x="330" y="150" />
            </Array>
          </mxGeometry>
        </mxCell>
      </root>
    </mxGraphModel>
  </diagram>
</mxfile>
